<?xml version='1.0' encoding='utf-8'?>
<svg xmlns="http://www.w3.org/2000/svg" version="1.1" width="600px" height="976px" viewBox="0 0 600 976"> <g id="layer1"> <g> <g style="fill:rgb(0,0,0); fill-opacity:1.0; stroke-linejoin: miter"> <path d="M269.18045,311.35284C269.247,311.46375,269.3579,312.06274,269.44666,312.72827C269.5354,313.3938,269.84598,314.5252,270.1344,315.25726C270.40057,315.98938,270.64462,316.9433,270.64462,317.38702C270.64462,318.11908,271.44327,322.15668,271.64294,322.48944C271.6873,322.5782,272.04224,323.77612,272.39722,325.17377C272.75214,326.57135,273.2624,328.2574,273.5286,328.9229C273.7948,329.58844,274.32724,330.98602,274.6822,332.02875C275.05933,333.07135,275.41428,334.0031,275.503,334.13623C275.59174,334.24713,275.85797,334.84613,276.0798,335.46735C276.30164,336.06628,276.92282,337.50824,277.45526,338.6397C278.49792,340.83594,279.9621,345.58344,279.9621,346.737C279.9621,347.1363,280.073,347.84625,280.20612,348.3343C280.4945,349.48785,280.80508,351.57318,281.04913,354.12445C281.16003,355.2558,281.31534,356.2763,281.40405,356.43158C281.4928,356.58685,281.60373,359.8258,281.6481,363.61932C281.69247,367.4129,281.8034,370.98456,281.9143,371.56134C282.04742,372.18256,282.04742,373.58014,281.9143,374.99994C281.82556,376.30884,281.6703,378.08356,281.62592,378.9488C281.31534,383.29694,280.58325,388.68774,280.18393,389.5973C279.76242,390.52905,279.47403,391.90448,279.58496,392.23724C279.8068,392.79187,281.0713,392.68097,281.84778,392.0376C283.60034,390.59564,284.62082,389.15363,284.62082,388.13312C284.62082,387.62286,284.97577,386.33618,285.28635,385.6928C285.6413,385.00513,285.99625,381.69965,285.86316,380.65698C285.68567,379.43683,285.26416,374.04602,285.28635,373.40265C285.59692,365.6825,285.9297,361.82245,286.30682,361.51178C287.57135,360.46918,288.37,363.64154,287.63788,366.96918C287.21637,368.96576,287.54916,372.58185,288.1925,372.98114C288.3034,373.04773,288.39215,373.5136,288.39215,374.04602C288.39215,374.57843,288.59183,375.77643,288.85803,376.7525C289.3683,378.72693,289.6123,380.41296,289.96725,384.3396C290.1891,386.8686,290.16693,387.15704,289.74542,388.5324C289.4792,389.35327,289.27954,390.0854,289.27954,390.1963C289.27954,390.37372,288.54745,392.12634,288.14813,392.85846C288.03723,393.08026,287.9485,393.36865,287.9485,393.47955C287.9485,394.01202,286.3512,396.11957,284.84265,397.62805C283.9331,398.51544,281.95868,400.0905,280.42798,401.11102C277.74365,402.90796,275.8136,404.61615,273.41766,407.2561C272.7965,407.9438,271.73166,408.87555,271.04395,409.3636C270.33405,409.82953,268.42618,411.13837,266.82892,412.2254C265.20944,413.33466,263.36813,414.466,262.76917,414.75446C262.148,415.04285,261.06097,415.64178,260.32886,416.0855C259.13092,416.81757,256.22473,418.2818,254.93805,418.79205C254.67184,418.9029,254.22815,419.08038,253.93976,419.19135C253.67352,419.30225,252.8971,419.635,252.23157,419.94562C251.56604,420.25616,250.7674,420.58893,250.45679,420.67767C250.14621,420.76642,249.05917,421.21014,248.01651,421.67596C246.97385,422.14185,245.57623,422.5855,244.9107,422.67426C244.24518,422.763,243.0694,423.11798,242.31512,423.47296C241.56085,423.82788,240.56256,424.1828,240.09668,424.2494C238.94308,424.42682,237.72293,425.0702,237.14615,425.8023C236.72464,426.33472,236.68027,426.6009,236.7912,427.64362C236.85773,428.30914,236.99084,429.48492,237.0574,430.21698C237.32361,432.7682,236.0813,437.56,234.35089,440.5993C233.41916,442.28534,231.08978,444.7256,228.27237,446.96625C227.47372,447.63177,226.69727,448.54132,225.98737,449.7171C224.65631,451.9134,224.63412,452.68982,225.72116,454.46454C226.47543,455.6847,227.6734,458.63525,228.07272,460.2547C228.16144,460.6762,228.42767,461.82977,228.62732,462.78375C229.02664,464.66937,230.62393,468.44073,231.91061,470.59265C232.35431,471.30255,232.82019,472.25647,232.95328,472.67798C233.30823,473.765,234.01813,475.29575,234.57275,476.22748C234.83896,476.649,235.30484,477.6029,235.59323,478.33502C236.21442,479.93228,236.6359,480.42035,238.36627,481.6405C239.83044,482.66095,240.38507,482.94937,241.6496,483.3265C242.11545,483.4818,242.9141,483.83673,243.42432,484.12512C243.93457,484.41354,244.53357,484.6576,244.7554,484.6576C244.99945,484.6576,245.44312,484.79068,245.7537,484.96814C246.3305,485.25653,247.10693,485.4562,250.10187,485.98865C250.83392,486.09955,253.78445,486.21048,256.66846,486.21048C261.17188,486.21048,262.03705,486.1661,262.68042,485.83334C263.1463,485.6115,264.2555,485.38965,265.5422,485.3009C266.962,485.21216,268.0047,485.0125,268.7146,484.67975C269.75726,484.23608,270.11218,484.21387,277.2112,484.21387C284.57645,484.21387,284.62082,484.21387,285.99625,484.7685C287.3495,485.3009,288.6362,485.6115,294.1601,486.76508C295.55774,487.07568,297.35468,487.54156,298.15332,487.82996C300.63797,488.7395,301.79156,489.09445,302.30182,489.09445C302.568,489.09445,302.8564,489.1832,302.92297,489.31628C302.9895,489.42722,303.2779,489.53815,303.52194,489.53815C304.05438,489.53815,305.34106,489.91528,306.0066,490.24805C306.67212,490.603,310.04416,491.20197,313.01688,491.51257C314.17047,491.62347,315.63464,491.84534,316.27798,491.97842C317.3872,492.20026,318.5408,492.20026,334.6245,491.8675C337.53067,491.82312,340.25934,491.66785,340.72522,491.53473C341.1689,491.42383,342.0785,491.3129,342.74402,491.3129C343.40955,491.3129,344.36346,491.20197,344.85153,491.06885C345.3396,490.95795,346.42664,490.7583,347.2918,490.66956C348.13483,490.55862,349.53244,490.24805,350.39764,489.9818C351.9062,489.53815,356.05466,488.80606,359.27142,488.42892C360.1144,488.34018,361.3789,488.0296,362.02228,487.76337C363.19806,487.29752,363.48645,487.29752,369.12128,487.38626C375.04453,487.4972,377.70667,487.69684,381.01215,488.36237C381.98825,488.53986,383.74084,488.7617,384.8944,488.85043C386.26984,488.93915,387.33472,489.13882,388.00024,489.4494C389.24255,490.00403,390.10776,490.24805,393.3245,490.98013C397.14023,491.84534,397.42862,491.93408,399.159,492.7327C400.0464,493.1542,402.1539,493.9972,403.8621,494.64056C409.985,496.90338,412.20343,497.96823,414.39972,499.74298C415.19833,500.38632,416.3741,501.25153,416.9953,501.67303C417.63864,502.09454,418.65912,503.04846,419.2581,503.80273C419.85706,504.557,420.87756,505.68842,421.5431,506.30957C423.60623,508.26178,425.4032,510.28058,425.75812,511.07922C426.71207,513.1202,427.04483,513.94104,427.04483,514.2072C427.04483,514.3847,427.13354,514.60657,427.2445,514.71747C427.75473,515.29425,428.68646,518.3557,428.73083,519.598C428.75302,520.33014,428.88614,521.3506,429.01923,521.88306C429.352,523.0366,429.10797,523.90186,428.13187,525.25507L427.44415,526.1868L426.02435,526.0315C424.8042,525.89844,424.49362,525.94275,423.87244,526.3421C422.9629,526.8967,421.87585,529.0708,420.61133,532.7978C420.34512,533.5742,419.92365,534.6391,419.70178,535.12714C419.45776,535.61523,418.9697,536.7466,418.59256,537.6561C417.77173,539.7415,416.35193,542.35925,415.28708,543.77905C413.06863,546.79614,410.80582,549.9907,409.4304,552.0982C408.05496,554.1836,407.87747,554.56067,407.78876,555.73645L407.67783,557.0232L410.20685,559.4413C413.02426,562.14777,415.10962,563.7894,417.8161,565.4976C420.3673,567.11707,426.06873,569.513,429.79572,570.55566C430.6387,570.7775,431.5039,571.0659,431.72574,571.1768C431.94757,571.30994,432.41345,571.3987,432.74622,571.3987C433.70013,571.3987,435.25305,573.15125,435.25305,574.21606C435.25305,574.4379,435.40836,574.9038,435.58582,575.2588C435.85205,575.76904,435.91858,577.1666,435.91858,583.4892C435.91858,588.0148,436.00732,591.56433,436.16263,592.27423C436.4954,593.9602,436.4954,607.31525,436.16263,607.9364C435.82986,608.5798,435.87424,609.8221,436.25137,611.4415C436.4732,612.329,436.58414,614.01495,436.58414,616.5218C436.58414,620.71466,436.82816,621.89044,438.29233,624.7522C439.71213,627.50305,440.13364,628.812,440.13364,630.4314C440.13364,632.0509,439.82306,632.56116,438.98004,632.3393C438.3367,632.1618,437.69336,632.53894,437.69336,633.09357C437.69336,633.78125,438.58075,634.62427,439.3128,634.62427C439.64557,634.62427,439.97833,634.77954,440.04492,634.95703C440.13364,635.1345,440.3111,635.2898,440.4442,635.2898C440.86572,635.2898,441.5978,636.1772,442.35208,637.6192C444.0381,640.83594,444.21558,642.7216,443.23944,647.15845C442.52954,650.3974,441.73093,651.7063,440.4664,651.7063C439.82306,651.7063,439.6012,651.5288,438.64728,650.3087C437.11658,648.37866,434.58752,644.0748,434.58752,643.4315C434.58752,643.32056,434.01074,642.4554,433.30084,641.5237C429.2189,636.1772,429.41858,636.62085,429.2411,632.5168C429.17453,630.5646,428.97485,628.1464,428.81958,627.126C428.59772,625.68396,428.57556,624.97406,428.7752,623.887C429.17453,621.8017,429.10797,613.70435,428.70868,611.73C428.02094,608.3136,427.48853,605.1633,427.48853,604.3869C427.48853,603.94324,427.3554,603.18896,427.17792,602.74524C426.97827,602.23505,426.80078,600.7265,426.73425,599.0183C426.6677,597.421,426.5124,595.77936,426.3793,595.35785C426.26837,594.93634,426.15744,593.80493,426.15744,592.87317C426.15744,591.27594,425.86905,590.03357,425.4919,590.03357C425.4032,590.03357,425.27008,589.8561,425.2257,589.6343C424.91513,588.50287,419.28027,584.2656,418.06012,584.2656C417.88266,584.2656,417.5499,584.1769,417.32806,584.066C416.17447,583.4892,414.86557,582.97894,414.17786,582.82367C413.75635,582.7349,413.29047,582.5796,413.17957,582.4909C412.71368,582.1359,408.92017,580.98236,407.41162,580.7383C405.50375,580.42773,404.2614,580.095,401.4662,579.07446C399.11462,578.2093,398.71533,578.1427,397.9167,578.5199C396.91837,578.96356,396.5856,580.0062,396.69653,582.3134C396.7631,583.53357,396.94055,584.64276,397.1624,585.0421C397.65045,585.99603,398.09415,587.0387,398.75967,588.8135C399.66925,591.20935,401.04468,593.9602,402.35358,595.9125C403.37405,597.4432,403.52933,597.8425,403.52933,598.7521C403.52933,599.32886,403.37405,600.1719,403.19656,600.6156C403.0191,601.0371,402.8638,601.5917,402.8638,601.8357C402.8638,602.0797,402.68634,602.5456,402.4423,602.8562C402.22046,603.18896,401.4662,604.54224,400.77847,605.89545C399.55832,608.26917,398.31598,610.5542,398.00543,610.99786C397.85013,611.1975,397.2068,612.90576,396.2972,615.43475C396.07538,616.03375,395.76477,616.7658,395.5873,617.0542C395.40985,617.34265,395.188,617.9416,395.0771,618.38525C394.8774,619.33923,394.07877,621.6908,393.50198,623.02185C393.28012,623.55426,393.10266,624.02014,393.10266,624.0867C393.10266,624.13104,392.50366,625.4177,391.7716,626.9263C391.0395,628.45703,390.44052,629.76587,390.44052,629.8546C390.44052,630.0099,389.88593,631.36316,389.53094,632.00653C389.42004,632.2284,389.3313,632.5833,389.3313,632.8274C389.3313,633.0714,388.97635,634.02527,388.55484,634.9349C388.13336,635.8666,387.77838,636.7318,387.77838,636.8649C387.77838,637.0868,387.53436,637.59705,386.42514,639.7711C386.3142,639.9929,386.2255,640.30347,386.2255,640.5032C386.2255,640.79156,385.7818,641.9452,385.31592,642.8769C385.20502,643.09875,385.11627,643.4759,385.11627,643.7199C385.11627,643.9639,385.02753,644.34106,384.9166,644.5629C384.71695,644.94006,382.7869,649.7319,382.2323,651.2626C382.0548,651.6841,381.87732,652.1278,381.7886,652.26086C381.69986,652.3718,381.45584,653.0817,381.23398,653.81384C381.03433,654.5459,380.76813,655.34454,380.67938,655.58856C380.59064,655.83264,380.28006,656.83093,380.01385,657.807C379.74762,658.78314,379.39267,659.8036,379.2152,660.0698C379.03772,660.33606,378.90463,660.691,378.90463,660.8241C378.90463,661.29,377.7954,662.57666,377.3739,662.57666C377.15204,662.57666,376.79712,662.377,376.55307,662.1108C374.6452,660.0476,374.26807,659.9367,373.00357,661.13464L372.18274,661.91113L372.33804,663.97424C372.47113,665.61597,372.42676,666.1483,372.13837,666.72516C371.65033,667.7013,370.31924,668.988,369.60934,669.1654C369.29877,669.232,368.7885,669.45386,368.47794,669.67566C367.5462,670.2969,365.63834,670.6074,363.2646,670.5187C359.02737,670.3412,356.7646,668.83264,357.62976,666.72516C357.78503,666.348,357.9847,665.9709,358.05127,665.9043C358.14,665.83777,358.62805,665.19446,359.16046,664.46234C359.69293,663.7302,360.9796,662.28827,362.0001,661.2456C363.04276,660.20294,364.32947,658.8053,364.88406,658.1398C365.43866,657.47424,366.37042,656.4094,366.92505,655.8104C367.8124,654.87866,369.36533,652.5937,369.36533,652.26086C369.36533,652.19434,370.05304,650.7302,370.9182,648.95544C371.76123,647.2029,372.47113,645.6278,372.47113,645.4503C372.47113,645.2728,372.55988,645.05096,372.64862,644.94006C372.75952,644.80695,372.98138,644.3633,373.13666,643.9418C373.44727,643.09875,374.379,640.969,374.71176,640.3479C374.8227,640.12604,374.91144,639.8598,374.91144,639.7489C374.91144,639.63794,375.39948,638.5066,376.02063,637.21985C376.61963,635.93317,377.12988,634.7574,377.12988,634.57996C377.12988,634.40247,377.2186,634.1806,377.32953,634.0697C377.44046,633.9366,377.72885,633.24884,378.01724,632.5168C378.28345,631.78467,378.6162,630.8751,378.7937,630.52014C379.72546,628.3683,380.2357,627.015,380.2357,626.7266C380.2357,626.5492,380.32443,626.2386,380.45752,626.0167C380.6572,625.66174,381.58893,623.5321,382.01044,622.5338C382.54288,621.18054,382.89783,620.00476,382.89783,619.4945C382.89783,619.16174,382.98657,618.829,383.11966,618.76245C383.2306,618.69586,383.3415,618.38525,383.3415,618.0747C383.3415,617.7863,383.43024,617.3648,383.54117,617.14294C383.82956,616.61053,384.45074,614.4586,384.45074,614.01495C384.45074,613.8153,384.53946,613.5491,384.6504,613.4382C384.9166,613.1498,385.16064,610.7317,385.16064,608.5576C385.16064,605.7402,384.87222,601.92444,384.6504,601.6804C384.53946,601.56946,384.45074,601.3033,384.45074,601.10364C384.45074,600.10535,382.321,595.6906,381.6111,595.22473C380.96777,594.8032,380.56845,593.8937,380.2357,592.03015C380.01385,590.7657,379.45923,588.83563,378.92682,587.4824C378.8159,587.23834,378.6162,586.6394,378.48312,586.1513C378.32782,585.66327,377.52917,583.86633,376.70837,582.1581C375.86536,580.44995,375.0667,578.6974,374.91144,578.2759C374.3568,576.7451,373.9353,575.9243,372.91483,574.28265C372.33804,573.3731,371.58377,572.15295,371.22882,571.5762C370.2527,570.02325,368.1008,567.27234,367.45746,566.76215C366.76974,566.2075,364.92844,565.63074,363.93015,565.63074C362.24414,565.63074,361.33456,566.29626,358.31747,569.8014C357.51883,570.73315,356.96423,571.1768,356.63147,571.1768C356.34308,571.1768,355.34476,571.37646,354.36865,571.6427C352.8823,572.01984,349.8652,572.72974,349.66553,572.72974C349.64337,572.72974,349.51025,572.4857,349.39935,572.1752C349.1775,571.5762,348.5785,571.44305,348.37885,571.95325C348.31232,572.13074,347.84644,572.3082,347.33618,572.37476C346.82593,572.44135,345.40613,572.5966,344.18597,572.75195C342.65527,572.9072,341.7901,573.129,341.3686,573.43964C340.83615,573.8168,340.39246,573.86115,338.0409,573.839C336.53235,573.8168,334.9129,573.8168,334.42487,573.839C328.0801,574.03864,325.17395,573.75024,322.84457,572.7075C321.092,571.9311,320.9367,571.86456,319.73877,571.3987C319.0954,571.15466,317.65344,570.7775,316.52203,570.53345C315.39063,570.2894,313.74896,569.9345,312.90594,569.73486C312.04077,569.53516,310.90936,569.29114,310.35474,569.2024C309.80014,569.0915,308.35815,568.8031,307.138,568.5591C304.96393,568.11536,303.5663,567.89355,300.039,567.3833C299.06287,567.2502,297.11066,566.76215,295.713,566.27405L293.1618,565.4089L292.67377,565.9413C292.341,566.34064,292.14133,566.9618,292.0304,568.00446C291.742,570.2451,291.85294,587.9926,292.14133,589.7674C292.27444,590.5882,292.58502,592.9176,292.8069,594.9585C293.11743,597.77594,293.3171,598.8408,293.67206,599.3954C294.38196,600.57117,294.6482,601.92444,294.69254,604.89716C294.7369,606.561,294.93658,608.73505,295.22498,610.28796C295.49118,611.73,295.713,613.416,295.713,614.01495C295.713,614.9911,295.97925,616.45526,296.6004,618.87335C296.7113,619.29486,296.93317,620.2044,297.06628,620.86993C297.22156,621.53546,297.57654,622.82214,297.86493,623.73175C298.15332,624.61914,298.37515,625.68396,298.37515,626.08325C298.37515,626.88196,299.12943,629.3888,299.6175,630.12085C299.79495,630.3871,299.92807,630.8086,299.92807,631.0526C299.92807,631.29663,300.01678,631.56287,300.1499,631.6294C300.26083,631.6959,300.37177,631.93994,300.37177,632.1618C300.37177,632.36145,300.48267,632.6499,300.61578,632.78296C300.90417,633.0714,301.48096,634.55774,302.1687,636.7318C302.5902,638.10724,302.74548,638.5066,303.5885,640.1704C303.8547,640.725,304.14313,641.4571,304.23184,641.8342C304.3206,642.1892,304.52026,642.78815,304.69772,643.1653C304.85303,643.52026,305.1858,644.31885,305.4298,644.94006C305.696,645.53906,306.4503,647.2472,307.1158,648.7114C308.24722,651.1295,308.35815,651.50665,308.35815,652.9043C308.35815,656.72,305.98444,657.89575,305.0083,654.5681C304.76428,653.7916,304.65335,653.6807,304.16528,653.74725C303.34448,653.836,303.03387,655.1005,303.5663,656.1432C303.766,656.5425,303.92126,656.964,303.92126,657.07495C303.92126,657.18585,304.2762,657.807,304.69772,658.4504C305.8957,660.2695,305.78476,661.13464,304.07654,663.8412C303.49976,664.75073,302.30182,665.9043,301.92468,665.9043C301.79156,665.9043,301.21478,666.1483,300.5936,666.43677C299.0185,667.19104,297.4212,667.5238,296.09015,667.3685C293.51678,667.0579,293.07306,666.947,292.69592,666.54767C292.49628,666.3258,292.1857,666.12616,292.0304,666.12616C291.58673,666.12616,290.6106,664.81726,290.6106,664.2183C290.6106,663.6193,291.0321,662.3992,291.94165,660.4691C293.40582,657.319,293.71643,656.3207,293.71643,654.87866C293.71643,653.592,294.1823,651.48444,294.84784,649.79846C295.26935,648.7336,295.26935,648.6227,294.93658,647.1363C294.7369,646.29333,294.4929,644.9622,294.38196,644.1636C293.78296,639.88196,292.71814,633.78125,292.29663,632.4059C292.097,631.74036,291.87512,630.742,291.80856,630.1874C291.742,629.6328,291.498,628.7676,291.25397,628.2573C291.0321,627.725,290.83246,627.2147,290.83246,627.10376C290.83246,626.88196,290.2113,624.7522,289.94507,624.0867C289.85632,623.84265,289.6123,623.2881,289.4348,622.8666C289.25735,622.44507,288.99115,621.6908,288.83588,621.2027C288.68054,620.71466,288.015,619.2061,287.3717,617.87506C286.4621,615.96716,285.79657,614.9689,284.31024,613.28284C282.2249,610.88696,282.15833,610.7317,280.9604,607.22656C280.5167,605.8733,280.05084,604.60876,279.93988,604.4091C279.82898,604.18726,279.74023,603.8101,279.74023,603.54395C279.74023,603.2777,279.62933,602.6565,279.49622,602.1463C278.87506,599.79474,278.58667,598.7521,278.43134,598.3528C277.96548,597.19916,277.72144,596.1787,277.61053,595.0917C277.49963,593.9159,277.18903,592.5404,276.85626,591.6974C276.74536,591.45337,276.61224,590.9431,276.56787,590.5882C276.36823,589.4124,276.05762,588.39197,275.56958,587.3937C275.30334,586.83905,275.0815,586.2179,275.0815,586.0182C275.0815,585.7964,274.97058,585.55237,274.85968,585.4858C274.72656,585.41925,274.63782,585.1752,274.63782,584.9756C274.63782,584.7759,274.48254,584.31,274.30505,583.9551C274.12756,583.6223,273.9723,583.1786,273.9723,583.0011C273.9723,582.82367,273.7948,582.40216,273.55078,582.09155C273.32892,581.7588,273.06274,581.13763,272.974,580.7161C272.8187,580.0062,272.72998,579.8066,272.19754,578.71954C272.06442,578.4755,271.9757,578.054,271.9757,577.7656C271.9757,577.4772,271.88696,577.1666,271.77603,577.0335C271.6873,576.9226,271.42108,576.27924,271.19922,575.6137C270.99957,574.9482,270.73337,574.21606,270.62244,574.0165C270.51154,573.79456,270.4228,573.5284,270.4228,573.39526C270.4228,573.28436,270.15656,572.61884,269.84598,571.90894C268.0047,567.8048,267.5832,567.1836,266.62924,567.1836C265.36475,567.1836,264.1224,569.49084,262.03705,575.7246C259.4193,583.4892,257.22305,588.9244,254.3169,594.8476C253.29639,596.933,251.94315,600.03876,251.32199,601.7248C248.41583,609.6002,248.08307,610.33234,246.1752,613.28284C244.64447,615.6344,243.0694,618.829,242.4704,620.75903C242.31512,621.2471,242.11545,621.82385,242.00452,622.02356C241.89362,622.24536,241.80487,622.60034,241.80487,622.82214C241.80487,623.044,241.73831,623.31024,241.6496,623.399C241.38336,623.66516,240.9397,625.1737,240.7844,626.28296C240.69565,626.88196,240.4516,627.88025,240.20758,628.5014C239.98575,629.12256,239.80829,629.87683,239.80829,630.1652C239.80829,630.7864,239.6308,631.71814,238.67688,636.50995C238.29974,638.3291,237.9226,640.2813,237.81168,640.83594C237.70074,641.3905,237.612,642.92126,237.58984,644.27454C237.58984,646.6039,237.19049,648.95544,236.5028,650.6858C236.3475,651.0408,236.14783,652.26086,236.03693,653.3701C235.926,654.679,235.68198,655.7439,235.39355,656.3207C234.81677,657.4299,233.55228,658.8053,233.06421,658.8053C232.73145,658.8053,231.60004,657.2746,231.60004,656.83093C231.60004,656.4094,230.29117,655.69946,229.51471,655.69946C228.91571,655.69946,228.56076,655.87695,227.9396,656.49817L227.16315,657.2746L227.20752,659.249C227.27408,661.15686,227.25189,661.2234,226.60855,661.91113C225.943,662.62103,224.36792,663.46405,223.74673,663.46405C223.56927,663.46405,223.34744,663.57495,223.28088,663.6859C223.21432,663.819,222.68188,663.9077,222.1051,663.9077C221.52832,663.9077,220.35254,664.063,219.50952,664.2405C217.18015,664.7285,216.24841,664.662,214.73987,663.9077C213.32007,663.1978,212.74329,662.55444,212.74329,661.73364C212.74329,661.13464,213.80814,659.02716,214.11871,659.02716C214.20746,659.02716,214.29617,658.9384,214.29617,658.8053C214.29617,658.3838,216.33716,655.69946,217.29108,654.85645C217.89005,654.34625,218.71088,653.85815,219.33206,653.7029C221.48395,653.1261,222.34912,652.3718,224.03516,649.59875C225.49933,647.2029,226.56418,644.6738,227.14096,642.27795C227.69559,639.94855,227.82867,639.5714,228.98227,637.10895C229.44815,636.11066,229.98056,634.7574,230.13586,634.114C230.31332,633.4929,230.86795,631.71814,231.3782,630.1874C232.46524,626.9707,233.15295,624.26416,233.15295,623.2215C233.15295,622.84436,233.5079,621.0918,233.92941,619.33923C234.35089,617.6088,234.70584,615.7675,234.70584,615.2795C234.70584,614.7692,234.79459,613.7931,234.9277,613.12756C235.34918,610.5542,235.68198,607.8255,235.74854,606.2282C235.77069,605.31866,235.90381,604.3204,236.01474,604.00977C236.12567,603.6992,236.39188,602.5012,236.59155,601.34766C236.7912,600.1941,237.14615,598.68555,237.3458,598.02C237.56763,597.3545,237.94476,596.24524,238.14444,595.5797C238.36627,594.9142,238.72125,593.9602,238.94308,593.47217C239.32022,592.607,239.7417,591.27594,240.20758,589.479C240.74002,587.3937,240.98404,586.5728,241.16153,586.0404C241.27246,585.7298,241.4721,584.68713,241.58301,583.71106C241.71613,582.7349,241.91577,581.38165,242.02673,580.7161C242.13763,580.0506,242.33728,578.7861,242.44821,577.9431C242.67004,576.5011,242.82535,575.70245,243.37994,573.2178C243.4909,572.7075,243.57962,571.7092,243.57962,570.9994C243.57962,570.2007,243.80145,569.06934,244.13422,568.07104C244.57794,566.7843,244.68884,565.98566,244.68884,564.3662C244.68884,561.83716,244.53357,561.5044,242.6257,559.8184C240.7844,558.199,239.16492,556.0249,238.05573,553.7621C237.2127,552.0317,236.30313,550.9668,233.64099,548.65967C233.13077,548.1938,232.70926,547.7279,232.70926,547.61694C232.70926,547.262,229.84747,544.2893,228.96008,543.6903C227.89523,543.0026,226.49762,541.64935,226.49762,541.33875C226.49762,540.7842,222.88156,537.81146,221.15118,536.9463C220.70749,536.7244,219.8201,536.0145,219.15457,535.37115C217.06924,533.3524,211.34564,527.3404,210.32516,526.12024C208.68353,524.1015,207.1528,522.3933,205.64426,520.84033C204.84561,520.04175,203.8917,518.7772,203.53674,518.0673C203.1596,517.3352,202.67154,516.4922,202.4497,516.20386C201.96164,515.58264,201.60669,514.9171,200.09814,511.92224C199.49918,510.74646,198.50089,509.19354,197.81314,508.3949C197.12543,507.61847,196.21588,506.28738,195.77219,505.42218C195.32849,504.557,194.70734,503.4034,194.39676,502.84882C193.37628,501.09622,192.37796,497.94604,191.55716,493.75317C191.13565,491.66785,191.18002,490.78046,191.88992,487.09784C192.71072,482.70532,192.40015,481.08588,190.53665,479.99884C189.6271,479.4886,189.3609,479.4442,186.56564,479.4442C183.74823,479.4442,183.48203,479.4886,182.01785,480.10974C180.70895,480.66437,180.17654,480.7753,178.57925,480.7753C176.84888,480.7753,176.56049,480.70874,175.02975,479.95447C174.12018,479.4886,172.76694,478.57904,172.03485,477.93567C171.30276,477.27014,170.30447,476.38278,169.8164,475.9391L168.92902,475.16263L168.86249,471.36908L168.79593,467.57556L169.41708,466.99878C169.74985,466.68817,170.32666,466.26666,170.68161,466.08917C171.43588,465.68988,175.91711,461.852,175.91711,461.58575C175.91711,461.497,176.95981,460.32123,178.2243,458.96802C179.48883,457.6369,180.68677,456.23932,180.88644,455.86218C181.3523,454.95264,181.3523,451.7359,180.88644,450.1386C180.57587,449.05157,180.57587,448.76318,180.86426,447.2768C181.28577,445.258,181.64072,444.70343,183.17145,443.68292C185.83356,441.93036,186.56564,440.66583,185.38986,439.8228C184.74652,439.357,181.59634,438.159,180.46494,437.95935C179.97687,437.8706,179.2226,437.6266,178.77893,437.40472C177.9581,437.0276,175.20721,434.80914,173.34372,433.0788C172.25668,432.0583,168.90686,426.68964,168.46317,425.22552C168.28568,424.64874,168.15259,423.22888,168.15259,421.80908L168.15259,419.391L167.19864,418.52582C166.68842,418.03778,165.46826,417.23907,164.49216,416.72882C162.8505,415.88586,161.47507,415.04285,159.8334,413.86707C158.92386,413.20154,157.1713,410.93872,156.41702,409.40802C156.06207,408.72028,155.52963,407.83295,155.21906,407.41144C154.93066,407.0121,154.62009,406.47968,154.55353,406.23566C154.48697,405.99164,154.19858,405.19293,153.95453,404.46088C152.88968,401.55475,152.35727,398.4267,152.24634,394.61102C152.11325,390.66217,152.37946,388.75433,153.08936,388.35498C154.06546,387.84473,154.62009,389.7304,155.08594,395.14337C155.37436,398.5598,155.84021,400.0905,157.81464,404.21686C159.301,407.34485,159.87778,408.01038,162.27371,409.5633C164.20374,410.7834,165.06894,411.2049,165.4017,411.07184C165.64572,410.9831,165.71228,409.9848,165.73447,405.7032C165.75665,402.8192,165.82321,400.22363,165.91196,399.91302C166.02286,399.53595,166.24472,399.33624,166.66623,399.29193C167.33176,399.2032,167.33176,399.1366,167.7089,402.4643C167.84198,403.6844,168.17477,405.37042,168.4188,406.23566C168.66281,407.07867,168.92902,408.07697,169.01776,408.45404C169.48364,410.18445,170.68161,412.31415,172.30106,414.26642C173.07751,415.19812,173.5434,415.53088,174.85226,416.04114C175.73965,416.3739,177.55878,417.39435,178.86765,418.25958C180.19873,419.14697,181.48541,419.8791,181.72943,419.8791C182.50589,419.8791,183.6373,418.83636,183.92569,417.8603C184.36938,416.4405,183.90353,414.44385,181.99567,409.34143C180.70895,405.96942,179.68848,403.83966,178.42398,401.9984C177.86935,401.19977,177.22601,400.06836,176.95981,399.49152C176.71576,398.93695,175.80621,397.47278,174.91882,396.25262C174.05362,395.03253,172.96658,393.41302,172.50073,392.63654C172.03485,391.88226,171.25839,390.9284,170.74817,390.52905C170.2601,390.15192,169.32834,389.3089,168.72937,388.68774C166.53311,386.44708,163.09451,384.20648,160.16617,383.05292C159.50064,382.78668,158.74637,382.3874,158.50235,382.18768C158.25833,381.96588,157.54843,381.54437,156.94943,381.25592C156.32828,380.9676,155.79584,380.65698,155.72931,380.5904C155.66275,380.52386,155.26343,380.27985,154.84192,380.05804C153.71051,379.4812,150.82654,377.41803,150.13882,376.68597C149.25143,375.7542,147.63199,373.2696,147.0108,371.93854C144.54834,366.6364,144.3487,365.9265,144.25995,362.4214C144.21558,360.64667,144.25995,359.2934,144.39307,359.0937C144.81458,358.4726,145.39136,359.18243,145.99033,361.1125C146.32309,362.133,146.94427,363.6637,147.36578,364.52887C147.78726,365.3719,148.20877,366.32587,148.29752,366.6364C148.8743,368.47772,150.11664,370.38556,151.93576,372.18256C153.62177,373.8686,154.1542,374.24567,156.4614,375.37708C158.3027,376.26447,159.61157,376.73035,160.78735,376.9522C161.71909,377.1297,162.82831,377.32928,163.20544,377.41803C163.95972,377.5733,165.09113,377.24054,165.75665,376.68597C165.95633,376.50848,166.35565,375.79858,166.62186,375.1109C166.88806,374.42316,167.35394,373.46924,167.64233,373.02557C167.93073,372.55963,168.15259,372.0716,168.15259,371.91632C168.15259,371.7832,168.28568,371.4948,168.44098,371.31732C168.59625,371.11768,168.88467,370.51874,169.03995,369.96405C169.19525,369.4095,169.41708,368.85486,169.48364,368.74396C169.57239,368.61084,169.97171,367.56818,170.37103,366.4146C170.77032,365.261,171.28058,363.92993,171.50241,363.46405C171.72427,362.99817,171.96829,362.33264,172.03485,361.97772C172.1236,361.60052,172.27887,361.26776,172.3898,361.20123C172.50073,361.1125,172.58945,360.84625,172.58945,360.60223C172.58945,360.15857,172.87787,359.07153,173.27719,358.0954C173.98709,356.2763,173.94272,342.81036,173.21063,341.6568C173.12189,341.52362,172.98877,340.61407,172.92224,339.66016C172.85568,338.70624,172.70038,337.30865,172.58945,336.57654C172.07922,333.24884,171.9461,331.2079,172.14578,330.25397C172.25668,329.69934,172.34543,328.41266,172.36761,327.37C172.36761,325.55084,172.90005,322.91095,173.43246,321.89044C173.8096,321.2249,174.5195,321.0252,175.02975,321.49115C175.51779,321.9348,175.42908,323.08844,174.7857,324.8853C174.09799,326.771,174.18674,332.31708,174.94101,335.9997C175.25159,337.53046,175.6731,339.23865,175.85059,339.79327C176.05023,340.34784,176.27206,341.2353,176.383,341.78986C176.82669,344.2967,177.44785,345.8496,178.15775,346.24896C178.668,346.51514,179.6441,346.00494,180.57587,344.98444C180.88644,344.67383,181.88474,343.83087,182.79431,343.1209C183.70386,342.41107,186.72095,339.54926,189.4718,336.77618C194.81827,331.36322,194.99573,331.1192,195.66125,328.12427C195.79437,327.56964,195.97183,326.97064,196.08276,326.74884C196.1937,326.54913,196.4599,325.72833,196.68176,324.92975C196.9036,324.13104,197.14761,323.37677,197.23636,323.26587C197.3251,323.13275,197.45819,322.53375,197.54694,321.9348C197.6135,321.31366,197.8797,319.82727,198.14594,318.60712C198.76709,315.56787,199.2995,314.8136,200.1647,315.78973C200.49747,316.1447,200.49747,316.32214,200.20908,317.49792C200.0094,318.29657,199.87631,320.07135,199.87631,321.9348C199.87631,323.643,199.76538,325.43994,199.65445,325.92804C199.52136,326.41608,199.23297,327.6584,199.01111,328.70105C198.43433,331.341,197.52475,333.67035,196.43771,335.35638C195.9053,336.15503,195.12885,337.48608,194.66296,338.3291C194.15271,339.28302,192.99915,340.72504,191.57932,342.21136C190.35919,343.4981,188.87283,345.16193,188.29602,345.89398C187.71924,346.62604,186.85403,347.5578,186.38818,347.9571C184.48032,349.51007,182.12875,352.17218,182.12875,352.77118C182.12875,352.8377,181.88474,353.28143,181.57416,353.76947C181.26358,354.2575,181.01953,354.81213,181.01953,354.98956C181.01953,355.16705,180.93082,355.49982,180.81989,355.72168C180.57587,356.18756,179.73285,358.38385,178.91202,360.64667C178.24649,362.46576,177.9581,363.24225,177.6919,363.75244C177.60315,363.92993,177.3591,364.6842,177.15945,365.41632C176.93762,366.14838,176.51611,367.32416,176.20554,368.03406C175.89493,368.74396,175.58435,369.89752,175.47345,370.58527C175.3847,371.273,175.2294,372.00507,175.14066,372.2047C174.6748,373.3805,174.20892,379.21503,174.56387,379.56995C174.69699,379.70306,174.80789,380.1911,174.80789,380.63483C174.80789,381.10065,174.89664,381.54437,175.02975,381.6109C175.14066,381.67743,175.25159,381.96588,175.25159,382.23212C175.25159,382.52045,175.3847,382.9198,175.53998,383.16382C175.71747,383.40784,176.00586,384.029,176.20554,384.53925C177.27039,387.2458,177.89154,388.26624,180.04343,390.88397C180.66458,391.63824,181.7738,393.23553,182.4837,394.43353C185.61172,399.60248,186.14413,400.51202,186.4769,401.24414C187.31992,403.0633,188.40695,405.37042,188.58444,405.7254C188.69534,405.9472,188.78409,406.34656,188.78409,406.61273C188.78409,406.90118,188.93939,407.3227,189.11685,407.5445C189.29434,407.7885,189.44962,408.1657,189.44962,408.3875C189.44962,408.6093,189.53836,408.9643,189.64929,409.18616C189.7602,409.3858,189.98206,410.00702,190.11514,410.56158C190.27045,411.1162,190.47012,411.8039,190.55884,412.1145C190.66977,412.4251,190.95816,413.4234,191.24655,414.33295C191.53497,415.2425,191.82336,416.0855,191.9343,416.19647C192.02301,416.32953,192.11176,416.81757,192.11176,417.32782C192.11176,418.12646,192.33359,419.30225,192.99915,422.20844C193.50937,424.4934,193.73123,425.2033,194.41895,426.64532C194.81827,427.48834,195.32849,428.57538,195.52817,429.01904C195.72781,429.48492,196.43771,430.52753,197.10324,431.3484C197.94626,432.39105,198.3234,433.10095,198.41214,433.74432C198.5896,434.9201,199.25513,435.96277,200.14252,436.5174C201.07425,437.07196,201.40704,437.07196,202.49408,436.49518C203.07086,436.18463,203.69202,435.54126,204.33539,434.54297C204.8678,433.74432,206.1767,432.16925,207.24155,431.03778C209.52652,428.6419,210.08115,427.66577,210.08115,426.0907C210.08115,424.47125,209.61526,423.73914,207.81833,422.43024C205.97702,421.07697,204.55722,419.76813,203.47018,418.3927C202.62717,417.30566,200.76367,413.73395,200.76367,413.17938C200.76367,412.97968,200.67496,412.75787,200.56403,412.66913C200.4531,412.6026,200.29782,411.98138,200.20908,411.27148C200.14252,410.5838,199.87631,409.00867,199.63226,407.7885C199.09985,404.9489,199.07767,404.15033,199.54355,402.17584C200.1647,399.53595,201.20737,399.09222,201.54013,401.37726C201.60669,401.84308,201.7398,402.3977,201.80634,402.5752C201.8729,402.75262,201.98383,404.26117,202.07257,405.9029L202.22784,408.89777L203.13742,410.45062C204.4241,412.6026,204.24664,412.4251,210.05896,417.41656C212.94293,419.8791,214.38492,420.76642,215.5607,420.76642C216.66992,420.76642,218.5556,418.14862,219.22113,415.664C220.17505,412.07013,220.30817,410.91656,220.4191,404.838C220.53,400.2458,220.48563,399.2697,220.17505,398.40448C219.9754,397.8277,219.68701,396.65192,219.50952,395.7868C219.22113,394.27826,217.71259,390.86182,216.69211,389.44202C216.1153,388.62115,216.22623,387.40106,216.86957,387.31232C217.91223,387.15704,219.8201,389.66388,220.9515,392.70313C221.2399,393.43524,221.70578,394.5666,221.97198,395.20996C222.2604,395.85333,222.50443,396.51886,222.50443,396.69635C222.50443,396.85162,222.59317,397.07343,222.72626,397.14C222.83719,397.2066,222.94812,397.47278,222.94812,397.7168C222.94812,397.96088,223.1034,398.38232,223.2587,398.64856C223.43616,398.91473,223.74673,399.7356,223.92422,400.4455C224.12387,401.1554,224.47882,402.2868,224.72287,402.95233C225.25528,404.39435,225.32184,407.05646,224.83377,408.65375C224.63412,409.31927,224.501,410.65033,224.501,412.0479C224.501,414.222,224.27917,415.88586,223.8133,416.88416C223.0812,418.54797,222.815,419.9234,223.0812,420.63336C223.2587,421.07697,224.3901,421.09918,225.25528,420.65546C225.58804,420.47803,226.16486,420.3227,226.5198,420.3227C227.38498,420.3227,228.13925,419.96777,229.82529,418.76984C231.64441,417.4831,232.39868,417.21692,234.30655,417.21692C235.12738,417.21692,235.99255,417.12817,236.21442,417.01727C236.70245,416.72882,238.45502,416.24078,240.14105,415.88586C240.87311,415.73053,241.56085,415.50873,241.67175,415.39777C241.80487,415.30902,242.04889,415.22028,242.27075,415.22028C242.4704,415.22028,243.11377,414.9541,243.71274,414.6435C244.62231,414.15546,247.1513,413.17938,249.01483,412.6247C249.61377,412.4251,255.20428,409.60767,256.46878,408.83124C257.02338,408.49847,257.88858,407.98822,258.3988,407.69977C258.90906,407.38922,259.33057,407.07867,259.33057,406.9677C259.33057,406.87897,259.44147,406.79022,259.5746,406.79022C260.01828,406.79022,262.32547,404.838,264.21112,402.8636C267.47223,399.4472,270.09003,395.09906,272.0866,389.81915C272.5303,388.599,273.12927,387.15704,273.3955,386.60242C273.83917,385.6485,273.86136,385.24915,273.92792,377.72864C273.99448,370.43,273.9501,369.67572,273.5286,367.4129C273.2624,366.05963,272.88525,364.6176,272.70776,364.1961C272.5303,363.7746,272.28625,363.22003,272.19754,362.976C272.0866,362.732,271.8204,362.08862,271.57635,361.534C271.33234,360.97943,270.75555,359.6927,270.31186,358.65002C269.8238,357.54083,269.1139,356.36505,268.5593,355.76605C265.76404,352.77118,263.4347,349.53223,261.1497,345.45026C260.01828,343.40936,259.8186,342.67725,259.33057,338.68402C259.21967,337.77448,259.06433,336.75397,258.9978,336.44342C258.90906,336.11066,258.84253,334.66864,258.84253,333.24884C258.8203,330.9195,258.8647,330.60895,259.24182,330.3205C259.46368,330.16522,259.79645,330.05426,259.9961,330.07648C260.35104,330.16522,260.48416,330.498,262.32547,336.35468C263.01318,338.55096,263.72308,340.79156,263.90057,341.32404C264.07803,341.8786,264.21112,342.5885,264.21112,342.92126C264.21112,343.60895,264.5661,343.96393,265.4535,344.14142C265.94153,344.23016,266.36304,344.65167,267.09512,345.7165C267.64972,346.51514,268.86987,348.13458,269.8238,349.31036C271.31015,351.15167,273.0849,354.16876,273.0849,354.87872C273.0849,355.01178,273.32892,355.23364,273.63953,355.36676C274.43817,355.72168,275.2146,355.2558,275.65833,354.10223C276.05762,353.0374,275.88013,350.92987,275.19244,348.5561C274.97058,347.82404,274.77094,346.98102,274.70438,346.67047C274.48254,345.25067,274.12756,343.56464,273.81702,342.34448C273.63953,341.61237,273.41766,340.65845,273.30676,340.237C272.44156,336.66522,270.15656,330.07648,269.13608,328.16864C268.86987,327.6584,268.73676,326.52698,268.60364,323.70953C268.2931,317.143,268.15997,312.2624,268.2931,311.70782C268.42618,311.19757,268.95862,310.9757,269.18045,311.35284 Z M218.97708,430.0617C218.6665,430.26135,218.35593,430.59412,218.26718,430.7716C216.22623,434.787,216.07092,435.25287,216.07092,437.13855C216.07092,438.84674,216.1153,438.97986,216.60336,439.20166C217.02487,439.4013,217.26889,439.33478,218.06754,438.84674C218.59998,438.51398,219.19894,438.07025,219.42078,437.8706C220.10849,437.22723,221.17334,434.54297,221.32864,433.12317C221.3952,432.34668,221.63922,431.4815,221.86108,431.14874C222.3713,430.43884,222.3713,430.32794,221.90543,429.8177C221.59485,429.48492,221.35083,429.4405,220.53,429.55145C219.9754,429.61798,219.2655,429.83984,218.97708,430.0617 Z"/> </g> </g> </g> </svg>